<svg width="21" height="19" viewBox="0 0 21 19" fill="none" xmlns="http://www.w3.org/2000/svg">
<path d="M8.5 5C9.05228 5 9.5 4.55228 9.5 4C9.5 3.44772 9.05228 3 8.5 3V5ZM1.5 3C0.947715 3 0.5 3.44772 0.5 4C0.5 4.55228 0.947715 5 1.5 5V3ZM4 7C4 7.55228 4.44771 8 5 8C5.55228 8 6 7.55228 6 7L4 7ZM6 1C6 0.447715 5.55228 2.19458e-08 5 0C4.44772 -2.19458e-08 4 0.447715 4 1L6 1ZM3.22077 11.9861V10.9861H2.22076L2.22077 11.9861L3.22077 11.9861ZM18.026 11.9861L19.026 11.9861L19.026 10.9861H18.026V11.9861ZM8.5 3H1.5V5H8.5V3ZM6 7L6 1L4 1L4 7L6 7ZM19 4.5C19 5.88071 17.8807 7 16.5 7V9C18.9853 9 21 6.98528 21 4.5H19ZM16.5 7C15.1193 7 14 5.88071 14 4.5H12C12 6.98528 14.0147 9 16.5 9V7ZM14 4.5C14 3.11929 15.1193 2 16.5 2V0C14.0147 0 12 2.01472 12 4.5H14ZM16.5 2C17.8807 2 19 3.11929 19 4.5H21C21 2.01472 18.9853 0 16.5 0V2ZM10.6234 16.8042C8.71343 16.8042 7.08942 16.3649 5.97187 15.5631C4.8946 14.7903 4.22078 13.6385 4.22077 11.9861L2.22077 11.9861C2.22078 14.2817 3.2041 16.039 4.80604 17.1882C6.3677 18.3085 8.44498 18.8042 10.6234 18.8042V16.8042ZM17.026 11.9861C17.026 13.9179 16.3286 15.0402 15.3004 15.7305C14.2018 16.468 12.5866 16.8042 10.6234 16.8042V18.8042C12.7485 18.8042 14.8346 18.4521 16.4152 17.391C18.0662 16.2825 19.026 14.4958 19.026 11.9861L17.026 11.9861ZM18.026 10.9861H3.22077V12.9861H18.026V10.9861Z" fill="black"/>
</svg>
